<svg xmlns="http://www.w3.org/2000/svg" shape-rendering="geometricPrecision" text-rendering="geometricPrecision" image-rendering="optimizeQuality" fill-rule="evenodd" clip-rule="evenodd" viewBox="0 0 512 488.783"><path fill="#2D2222" fill-rule="nonzero" d="M120.009 270.449l12.051-.014c63.731-.22 80.084-.266 144.202 39.975h52.865l.607.039c8.199.556 15.303 3.464 20.534 7.766 4.12 3.387 7.117 7.671 8.624 12.394 1.539 4.827 1.532 10.065-.369 15.239-2.039 5.543-6.262 11.001-13.1 15.714-10.245 7.504-22.03 11.037-34.651 12.373-12.143 1.284-25.049.511-38.085-.652-4.146-.202-6.802 1.433-7.954 3.645a6.503 6.503 0 00-.727 2.848 6.68 6.68 0 00.606 2.937c1.092 2.365 3.823 4.231 8.313 4.248l.329.014c3.377.249 7.065-.117 10.654-.464 2.851-.28 5.663-.557 8.494-.56 15.522-.011 29.622-1.483 41.658-5.966 11.593-4.315 21.385-11.5 28.832-23.019l7.983-18.636a4.658 4.658 0 012.235-2.362l80.598-39.96.61-.249c13.809-4.557 26.473-3.163 36.382 1.894 6.5 3.313 11.824 8.221 15.519 14.076 3.709 5.866 5.784 12.71 5.78 19.859-.003 10.115-4.146 20.807-13.653 30.198l-.536.454c-29.243 21.285-58.94 40.726-89.052 58.412-30.024 17.639-60.374 33.481-91.007 47.61-45.933 27.828-91.851 26.888-137.744.007l-59.998-30.928a16.68 16.68 0 01-4.904 11.795l-.529.479c-2.982 2.741-6.951 4.426-11.292 4.426H16.725c-4.585 0-8.76-1.88-11.792-4.905A16.588 16.588 0 010 437.32V268.736c0-4.582 1.883-8.763 4.922-11.802a16.577 16.577 0 0111.803-4.919h86.559a16.68 16.68 0 0111.817 4.905l.475.525c2.752 2.989 4.433 6.961 4.433 11.291v1.713z"/><path fill="#F6CD45" d="M317.148 0c75.35 0 136.432 61.082 136.432 136.432s-61.082 136.432-136.432 136.432-136.432-61.082-136.432-136.432S241.798 0 317.148 0z"/><path fill="#D19632" d="M317.148 23.867c62.168 0 112.565 50.397 112.565 112.565s-50.397 112.565-112.565 112.565S204.583 198.6 204.583 136.432 254.98 23.867 317.148 23.867z"/><path fill="#DBA47B" fill-rule="nonzero" d="M121.148 279.819v147.578l63.369 32.68c42.858 25.182 85.713 26.094 128.531.092l.568-.312a1027.695 1027.695 0 0090.411-47.27c29.629-17.405 58.983-36.62 88.02-57.738 7.377-7.401 10.604-15.608 10.604-23.261 0-5.337-1.56-10.462-4.348-14.873-2.794-4.43-6.862-8.164-11.852-10.707-7.773-3.964-17.827-5.032-28.966-1.429l-78.68 39.01-7.444 17.374-.365.677c-8.682 13.608-20.115 22.059-33.673 27.105-13.224 4.926-28.381 6.54-44.921 6.554-2.27 0-4.909.262-7.579.525-4.057.393-8.206.801-12.264.486-8.525-.146-13.99-4.348-16.451-9.675a15.95 15.95 0 01-1.45-7.061 15.946 15.946 0 011.79-6.972c2.71-5.195 8.345-9.079 16.679-8.667l.184.018c12.579 1.127 25.006 1.886 36.51.67 11.075-1.171 21.331-4.213 30.084-10.625l.128-.089c5.167-3.539 8.284-7.447 9.695-11.288 1.156-3.149 1.174-6.312.256-9.189-.951-2.982-2.919-5.748-5.653-7.996-3.781-3.107-9.033-5.221-15.204-5.643h-54.188a4.792 4.792 0 01-2.493-.734c-62.813-39.542-78.421-39.485-140.386-39.276l-10.912.036z"/><path fill="#43494C" d="M16.725 259.147h86.559c5.277 0 9.593 4.316 9.593 9.589V437.32c0 5.277-4.316 9.589-9.593 9.589H16.725c-5.277 0-9.593-4.312-9.593-9.589V268.736c0-5.273 4.316-9.589 9.593-9.589z"/><path fill="#34393E" d="M112.877 333.785v103.534c0 5.277-4.316 9.594-9.594 9.594H16.726c-5.277 0-9.594-4.317-9.594-9.594v-21.536l105.745-81.998z"/><path fill="#A87927" fill-rule="nonzero" d="M366.56 129.627l.813.813-.601 7.409-16.029-.001a32.976 32.976 0 01-13.922 14.087c-6.203 3.404-13.715 5.301-22.535 5.691h-12.199l.406 30.44h-14.841l.602-30.041-.195-20.225h-17.013l-.813-.984.601-7.189h17.225l-.203-12.41h-16.81l-.813-.814.601-7.408h17.021l-.203-20.64 34.05-.204c8.409 0 15.283 1.771 20.624 5.311 5.34 3.54 8.959 8.712 10.856 15.517h13.419l.813 1-.602 7.213h-12.198v3.205a43.012 43.012 0 01-1.076 9.229l13.022.001zm-64.083-20.648h33.839c-3.475-6.295-9.615-9.632-18.42-10.011l-15.224.569-.195 9.409v.033zm-.203 20.648h35.644a32.183 32.183 0 001.001-7.808c.002-.228.006-.479.006-.713 0-1.298-.069-2.599-.202-3.888l-36.246-.001-.203 12.41zm15.622 17.004c6.81-1.475 12.017-4.413 15.622-8.815h-31.244l-.203 8.214 15.825.601z"/><path fill="#FCD553" fill-rule="nonzero" d="M363.21 126.277l.814.813-.602 7.409h-16.029a32.979 32.979 0 01-13.922 14.086c-6.203 3.404-13.715 5.301-22.535 5.692h-12.199l.407 30.439-14.842-.001.602-30.04-.195-20.226h-17.013l-.814-.983.603-7.189h17.224l-.203-12.41h-16.81l-.814-.814.603-7.408h17.02l-.203-20.64 34.05-.203c8.409 0 15.284 1.77 20.624 5.31 5.34 3.54 8.959 8.713 10.857 15.516h13.418l.813 1.001-.602 7.213h-12.198v3.204a42.967 42.967 0 01-1.076 9.231h13.022zm-64.083-20.649h33.839c-3.475-6.294-9.615-9.631-18.42-10.01l-15.224.569-.195 9.409v.032zm-.203 20.649h35.644a32.134 32.134 0 001.001-7.808c.001-.227.006-.48.006-.713 0-1.298-.069-2.599-.202-3.888l-36.246-.001-.203 12.41zm15.622 17.004c6.81-1.474 12.017-4.413 15.623-8.815h-31.245l-.203 8.213 15.825.602z"/></svg>