<svg width="25" height="25" viewBox="0 0 25 25" fill="none" xmlns="http://www.w3.org/2000/svg">
<g clip-path="url(#clip0_2178_559)">
<path d="M12.5001 23.867C18.7779 23.867 23.8671 18.7778 23.8671 12.5C23.8671 6.22217 18.7779 1.133 12.5001 1.133C6.22224 1.133 1.13306 6.22217 1.13306 12.5C1.13306 18.7778 6.22224 23.867 12.5001 23.867Z" fill="white" stroke="#2C2F36" stroke-width="2" stroke-miterlimit="10"/>
<path d="M20.0975 11.9233V16.574C20.0975 16.7101 19.9723 16.8216 19.8195 16.8216H19.2326C19.0797 16.8216 18.9546 16.7102 18.9546 16.574V11.9233C18.9546 11.7872 19.0797 11.6757 19.2326 11.6757H19.8195C19.9723 11.6757 20.0975 11.7871 20.0975 11.9233Z" fill="#2C2F36"/>
<path d="M21.4565 12.7489H20.4676C20.4251 12.7489 20.3906 12.7834 20.3906 12.8259V15.6715C20.3906 15.7141 20.4251 15.7485 20.4676 15.7485H21.4565C21.499 15.7485 21.5335 15.7141 21.5335 15.6715V12.8259C21.5335 12.7834 21.499 12.7489 21.4565 12.7489Z" fill="#2C2F36"/>
<path d="M4.89453 11.9233V16.574C4.89453 16.7101 5.01966 16.8216 5.17253 16.8216H5.75941C5.91228 16.8216 6.03741 16.7102 6.03741 16.574V11.9233C6.03741 11.7872 5.91228 11.6757 5.75941 11.6757H5.17253C5.01966 11.6757 4.89453 11.7871 4.89453 11.9233Z" fill="#2C2F36"/>
<path d="M3.53544 15.7485H4.52432C4.56684 15.7485 4.60132 15.714 4.60132 15.6715V12.8258C4.60132 12.7833 4.56684 12.7488 4.52432 12.7488H3.53544C3.49292 12.7488 3.45844 12.7833 3.45844 12.8258L3.45844 15.6715C3.45844 15.714 3.49292 15.7485 3.53544 15.7485Z" fill="#2C2F36"/>
<path d="M6.3252 13.2621H9.00595C9.04432 13.2621 9.08082 13.2453 9.1057 13.2159L12.2777 9.47289C12.3271 9.41464 12.4156 9.41089 12.4696 9.46477L16.2447 13.224C16.2692 13.2484 16.3023 13.2621 16.3369 13.2621H18.4776C18.5939 13.2621 18.6523 13.1214 18.5699 13.039L12.4389 6.90802" fill="#FF0000"/>
<path d="M12.5001 23.2284C18.4252 23.2284 23.2285 18.4251 23.2285 12.5C23.2285 6.57486 18.4252 1.77161 12.5001 1.77161C6.57499 1.77161 1.77173 6.57486 1.77173 12.5C1.77173 18.4251 6.57499 23.2284 12.5001 23.2284Z" stroke="#FF0000" stroke-miterlimit="10"/>
<path d="M19.4325 13.5673H5.94189V14.7961H19.4325V13.5673Z" fill="#2C2F36"/>
</g>
<defs>
<clipPath id="clip0_2178_559">
<rect width="25" height="25" fill="white"/>
</clipPath>
</defs>
</svg>
